<mxfile host="app.diagrams.net" modified="2022-07-05T09:59:32.618Z" agent="5.0 (Windows NT 10.0; Win64; x64) AppleWebKit/537.36 (KHTML, like Gecko) Chrome/102.0.0.0 Safari/537.36" etag="6WEob9ykwEuzIMZ80rSz" version="20.0.3" type="github">
  <diagram id="kgpKYQtTHZ0yAKxKKP6v" name="Page-1">
    <mxGraphModel dx="1662" dy="705" grid="1" gridSize="10" guides="1" tooltips="1" connect="1" arrows="1" fold="1" page="1" pageScale="1" pageWidth="850" pageHeight="1100" math="0" shadow="0">
      <root>
        <mxCell id="0" />
        <mxCell id="1" parent="0" />
        <mxCell id="5kiuY5boxaqDOLgrD8A7-1" value="Correction Flow" style="verticalAlign=top;align=left;spacingTop=8;spacingLeft=2;spacingRight=12;shape=cube;size=10;direction=south;fontStyle=4;html=1;" parent="1" vertex="1">
          <mxGeometry x="160" y="140" width="1500" height="1400" as="geometry" />
        </mxCell>
        <mxCell id="3nuBFxr9cyL0pnOWT2aG-1" value=":CorrectionScheduledTask" style="shape=umlLifeline;perimeter=lifelinePerimeter;container=1;collapsible=0;recursiveResize=0;rounded=0;shadow=0;strokeWidth=1;" parent="1" vertex="1">
          <mxGeometry x="275" y="80" width="155" height="1310" as="geometry" />
        </mxCell>
        <mxCell id="3nuBFxr9cyL0pnOWT2aG-2" value="" style="points=[];perimeter=orthogonalPerimeter;rounded=0;shadow=0;strokeWidth=1;" parent="3nuBFxr9cyL0pnOWT2aG-1" vertex="1">
          <mxGeometry x="72.5" y="140" width="10" height="1120" as="geometry" />
        </mxCell>
        <mxCell id="3nuBFxr9cyL0pnOWT2aG-3" value="4 clock every day &#xa;run correctionDailySchedule" style="verticalAlign=bottom;startArrow=oval;endArrow=block;startSize=8;shadow=0;strokeWidth=1;" parent="3nuBFxr9cyL0pnOWT2aG-1" target="3nuBFxr9cyL0pnOWT2aG-2" edge="1">
          <mxGeometry x="-1" y="22" relative="1" as="geometry">
            <mxPoint x="-15" y="140" as="sourcePoint" />
            <mxPoint x="-20" y="12" as="offset" />
          </mxGeometry>
        </mxCell>
        <mxCell id="3nuBFxr9cyL0pnOWT2aG-4" value="" style="points=[];perimeter=orthogonalPerimeter;rounded=0;shadow=0;strokeWidth=1;" parent="3nuBFxr9cyL0pnOWT2aG-1" vertex="1">
          <mxGeometry x="80" y="197" width="10" height="83" as="geometry" />
        </mxCell>
        <mxCell id="5kiuY5boxaqDOLgrD8A7-3" value="for 04, 05, 08 ( itlTpCode List )&lt;br&gt;&lt;span style=&quot;white-space: pre;&quot;&gt;	&lt;/span&gt;1. 전일, itlTpCode Param Map 생성 ( ex : 04, 20220703 )" style="edgeStyle=orthogonalEdgeStyle;html=1;align=left;spacingLeft=2;endArrow=block;rounded=0;entryX=1.019;entryY=0.01;exitX=0.911;exitY=0.035;exitDx=0;exitDy=0;exitPerimeter=0;entryDx=0;entryDy=0;entryPerimeter=0;" parent="3nuBFxr9cyL0pnOWT2aG-1" source="3nuBFxr9cyL0pnOWT2aG-2" target="3nuBFxr9cyL0pnOWT2aG-4" edge="1">
          <mxGeometry x="0.5311" y="20" relative="1" as="geometry">
            <mxPoint x="119.13999999999987" y="216.3599999999999" as="sourcePoint" />
            <Array as="points">
              <mxPoint x="105" y="190" />
              <mxPoint x="105" y="198" />
            </Array>
            <mxPoint as="offset" />
            <mxPoint x="130" y="210" as="targetPoint" />
          </mxGeometry>
        </mxCell>
        <mxCell id="5kiuY5boxaqDOLgrD8A7-82" value="" style="points=[];perimeter=orthogonalPerimeter;rounded=0;shadow=0;strokeWidth=1;" parent="3nuBFxr9cyL0pnOWT2aG-1" vertex="1">
          <mxGeometry x="80" y="1128.95" width="10" height="83" as="geometry" />
        </mxCell>
        <mxCell id="5kiuY5boxaqDOLgrD8A7-83" value="for 04, 05, 08 ( itlTpCode List )&lt;br&gt;&lt;span style=&quot;white-space: pre;&quot;&gt;	&lt;/span&gt;1. 전일, itlTpCode Param Map 생성 ( ex : 04, 20220703 )" style="edgeStyle=orthogonalEdgeStyle;html=1;align=left;spacingLeft=2;endArrow=block;rounded=0;entryX=1.019;entryY=0.01;exitX=1.018;exitY=0.686;exitDx=0;exitDy=0;exitPerimeter=0;entryDx=0;entryDy=0;entryPerimeter=0;" parent="3nuBFxr9cyL0pnOWT2aG-1" source="3nuBFxr9cyL0pnOWT2aG-2" target="5kiuY5boxaqDOLgrD8A7-82" edge="1">
          <mxGeometry x="0.8523" y="5" relative="1" as="geometry">
            <mxPoint x="86.61000000000013" y="1122" as="sourcePoint" />
            <Array as="points">
              <mxPoint x="110" y="1121" />
              <mxPoint x="110" y="1130" />
            </Array>
            <mxPoint x="5" y="-5" as="offset" />
            <mxPoint x="-140" y="1061.95" as="targetPoint" />
          </mxGeometry>
        </mxCell>
        <mxCell id="3nuBFxr9cyL0pnOWT2aG-5" value=":CorrectionService" style="shape=umlLifeline;perimeter=lifelinePerimeter;container=1;collapsible=0;recursiveResize=0;rounded=0;shadow=0;strokeWidth=1;" parent="1" vertex="1">
          <mxGeometry x="455" y="80" width="565" height="1280" as="geometry" />
        </mxCell>
        <mxCell id="3nuBFxr9cyL0pnOWT2aG-6" value="" style="points=[];perimeter=orthogonalPerimeter;rounded=0;shadow=0;strokeWidth=1;" parent="3nuBFxr9cyL0pnOWT2aG-5" vertex="1">
          <mxGeometry x="277.5" y="150" width="10" height="20" as="geometry" />
        </mxCell>
        <mxCell id="5kiuY5boxaqDOLgrD8A7-5" value="" style="points=[];perimeter=orthogonalPerimeter;rounded=0;shadow=0;strokeWidth=1;" parent="3nuBFxr9cyL0pnOWT2aG-5" vertex="1">
          <mxGeometry x="277.5" y="255" width="10" height="825" as="geometry" />
        </mxCell>
        <mxCell id="5kiuY5boxaqDOLgrD8A7-9" value="getBillingTimeDataList" style="verticalAlign=bottom;endArrow=block;entryX=-0.033;entryY=0.039;shadow=0;strokeWidth=1;entryDx=0;entryDy=0;entryPerimeter=0;" parent="3nuBFxr9cyL0pnOWT2aG-5" target="5kiuY5boxaqDOLgrD8A7-8" edge="1">
          <mxGeometry relative="1" as="geometry">
            <mxPoint x="287.5" y="270" as="sourcePoint" />
            <mxPoint x="662.5" y="270" as="targetPoint" />
          </mxGeometry>
        </mxCell>
        <mxCell id="5kiuY5boxaqDOLgrD8A7-84" value="" style="points=[];perimeter=orthogonalPerimeter;rounded=0;shadow=0;strokeWidth=1;" parent="3nuBFxr9cyL0pnOWT2aG-5" vertex="1">
          <mxGeometry x="277.5" y="1190" width="10" height="60" as="geometry" />
        </mxCell>
        <mxCell id="5kiuY5boxaqDOLgrD8A7-85" value="checkDailyDate ( 총 노출 기준 일자별 데이터 보정 )" style="verticalAlign=bottom;endArrow=block;shadow=0;strokeWidth=1;exitX=0.911;exitY=0.628;exitDx=0;exitDy=0;exitPerimeter=0;" parent="3nuBFxr9cyL0pnOWT2aG-5" edge="1">
          <mxGeometry relative="1" as="geometry">
            <mxPoint x="-90.88999999999987" y="1190.004" as="sourcePoint" />
            <mxPoint x="277.5" y="1190.004" as="targetPoint" />
          </mxGeometry>
        </mxCell>
        <mxCell id="5kiuY5boxaqDOLgrD8A7-87" value="return" style="verticalAlign=bottom;endArrow=open;dashed=1;endSize=8;shadow=0;strokeWidth=1;" parent="3nuBFxr9cyL0pnOWT2aG-5" edge="1">
          <mxGeometry relative="1" as="geometry">
            <mxPoint x="-95" y="1078" as="targetPoint" />
            <mxPoint x="275" y="1080" as="sourcePoint" />
          </mxGeometry>
        </mxCell>
        <mxCell id="3nuBFxr9cyL0pnOWT2aG-7" value="return" style="verticalAlign=bottom;endArrow=open;dashed=1;endSize=8;exitX=0;exitY=0.95;shadow=0;strokeWidth=1;" parent="1" source="3nuBFxr9cyL0pnOWT2aG-6" target="3nuBFxr9cyL0pnOWT2aG-2" edge="1">
          <mxGeometry relative="1" as="geometry">
            <mxPoint x="460" y="306" as="targetPoint" />
          </mxGeometry>
        </mxCell>
        <mxCell id="3nuBFxr9cyL0pnOWT2aG-8" value="dbConnTest" style="verticalAlign=bottom;endArrow=block;entryX=0;entryY=0;shadow=0;strokeWidth=1;" parent="1" source="3nuBFxr9cyL0pnOWT2aG-2" target="3nuBFxr9cyL0pnOWT2aG-6" edge="1">
          <mxGeometry relative="1" as="geometry">
            <mxPoint x="460" y="230" as="sourcePoint" />
          </mxGeometry>
        </mxCell>
        <mxCell id="5kiuY5boxaqDOLgrD8A7-4" value="checkTimeDate ( 총 노출 기준 시간대별 데이터 보정 )" style="verticalAlign=bottom;endArrow=block;shadow=0;strokeWidth=1;exitX=0.911;exitY=0.628;exitDx=0;exitDy=0;exitPerimeter=0;" parent="1" target="5kiuY5boxaqDOLgrD8A7-5" edge="1">
          <mxGeometry relative="1" as="geometry">
            <mxPoint x="364.1100000000001" y="338.124" as="sourcePoint" />
            <mxPoint x="730" y="339" as="targetPoint" />
          </mxGeometry>
        </mxCell>
        <mxCell id="5kiuY5boxaqDOLgrD8A7-6" value=":BillingMapper" style="shape=umlLifeline;perimeter=lifelinePerimeter;container=1;collapsible=0;recursiveResize=0;rounded=0;shadow=0;strokeWidth=1;" parent="1" vertex="1">
          <mxGeometry x="1040" y="80" width="565" height="1110" as="geometry" />
        </mxCell>
        <mxCell id="5kiuY5boxaqDOLgrD8A7-8" value="" style="points=[];perimeter=orthogonalPerimeter;rounded=0;shadow=0;strokeWidth=1;" parent="5kiuY5boxaqDOLgrD8A7-6" vertex="1">
          <mxGeometry x="277.5" y="270" width="10" height="20" as="geometry" />
        </mxCell>
        <mxCell id="5kiuY5boxaqDOLgrD8A7-21" value="" style="points=[];perimeter=orthogonalPerimeter;rounded=0;shadow=0;strokeWidth=1;" parent="5kiuY5boxaqDOLgrD8A7-6" vertex="1">
          <mxGeometry x="277.5" y="420" width="10" height="20" as="geometry" />
        </mxCell>
        <mxCell id="5kiuY5boxaqDOLgrD8A7-33" value="" style="points=[];perimeter=orthogonalPerimeter;rounded=0;shadow=0;strokeWidth=1;" parent="5kiuY5boxaqDOLgrD8A7-6" vertex="1">
          <mxGeometry x="277.5" y="470" width="10" height="20" as="geometry" />
        </mxCell>
        <mxCell id="5kiuY5boxaqDOLgrD8A7-10" value="BILLING.MOB_ADVER_HH_STATS&lt;br&gt;( 광고주별 시간 통계 )" style="text;html=1;strokeColor=none;fillColor=none;align=center;verticalAlign=middle;whiteSpace=wrap;rounded=0;" parent="1" vertex="1">
          <mxGeometry x="1370" y="350" width="170" height="30" as="geometry" />
        </mxCell>
        <mxCell id="5kiuY5boxaqDOLgrD8A7-11" value="return 시간대별 총노출수" style="verticalAlign=bottom;endArrow=open;dashed=1;endSize=8;exitX=0.017;exitY=0.983;shadow=0;strokeWidth=1;exitDx=0;exitDy=0;exitPerimeter=0;" parent="1" source="5kiuY5boxaqDOLgrD8A7-8" target="5kiuY5boxaqDOLgrD8A7-5" edge="1">
          <mxGeometry relative="1" as="geometry">
            <mxPoint x="880" y="366.65999999999997" as="targetPoint" />
            <mxPoint x="1255" y="366.65999999999997" as="sourcePoint" />
          </mxGeometry>
        </mxCell>
        <mxCell id="5kiuY5boxaqDOLgrD8A7-12" value="getOpenRtbTimeDataList" style="verticalAlign=bottom;endArrow=block;entryX=-0.033;entryY=0.039;shadow=0;strokeWidth=1;entryDx=0;entryDy=0;entryPerimeter=0;" parent="1" edge="1">
          <mxGeometry relative="1" as="geometry">
            <mxPoint x="742.5" y="400.0000000000001" as="sourcePoint" />
            <mxPoint x="1317.1699999999996" y="400.7800000000001" as="targetPoint" />
          </mxGeometry>
        </mxCell>
        <mxCell id="5kiuY5boxaqDOLgrD8A7-13" value="OpenRTB.ORTB_ADVER_HH_STATS&lt;br&gt;( 광고주별 시간 통계 )" style="text;html=1;strokeColor=none;fillColor=none;align=center;verticalAlign=middle;whiteSpace=wrap;rounded=0;" parent="1" vertex="1">
          <mxGeometry x="1370" y="400" width="150" height="30" as="geometry" />
        </mxCell>
        <mxCell id="5kiuY5boxaqDOLgrD8A7-14" value="return 시간대별 총노출수" style="verticalAlign=bottom;endArrow=open;dashed=1;endSize=8;exitX=0.017;exitY=0.983;shadow=0;strokeWidth=1;exitDx=0;exitDy=0;exitPerimeter=0;" parent="1" edge="1">
          <mxGeometry relative="1" as="geometry">
            <mxPoint x="742.5" y="419.6600000000001" as="targetPoint" />
            <mxPoint x="1317.67" y="419.6600000000001" as="sourcePoint" />
          </mxGeometry>
        </mxCell>
        <mxCell id="5kiuY5boxaqDOLgrD8A7-15" value="" style="points=[];perimeter=orthogonalPerimeter;rounded=0;shadow=0;strokeWidth=1;" parent="1" vertex="1">
          <mxGeometry x="1317.5" y="400" width="10" height="20" as="geometry" />
        </mxCell>
        <mxCell id="5kiuY5boxaqDOLgrD8A7-16" value="" style="points=[];perimeter=orthogonalPerimeter;rounded=0;shadow=0;strokeWidth=1;" parent="1" vertex="1">
          <mxGeometry x="740" y="437" width="10" height="703" as="geometry" />
        </mxCell>
        <mxCell id="5kiuY5boxaqDOLgrD8A7-17" value="for 00 ~ 23 ( 시간대 List )&lt;br&gt;&lt;span style=&quot;white-space: pre;&quot;&gt;	&lt;/span&gt;1. 시간대별 총노출수 동일 검증&lt;br&gt;&lt;span style=&quot;white-space: pre;&quot;&gt;	&lt;/span&gt;2. 다를 시, OpenRTB 기준 BILLING 시간대 데이터 삭제 후 재적재&lt;span style=&quot;white-space: pre;&quot;&gt;	&lt;/span&gt;" style="edgeStyle=orthogonalEdgeStyle;html=1;align=left;spacingLeft=2;endArrow=block;rounded=0;entryX=1.019;entryY=0.01;exitX=0.942;exitY=0.264;exitDx=0;exitDy=0;exitPerimeter=0;entryDx=0;entryDy=0;entryPerimeter=0;" parent="1" target="5kiuY5boxaqDOLgrD8A7-16" edge="1">
          <mxGeometry x="0.5311" y="20" relative="1" as="geometry">
            <mxPoint x="741.9200000000001" y="430.1600000000001" as="sourcePoint" />
            <Array as="points">
              <mxPoint x="744" y="430" />
              <mxPoint x="765" y="430" />
              <mxPoint x="765" y="438" />
            </Array>
            <mxPoint as="offset" />
            <mxPoint x="515" y="370" as="targetPoint" />
          </mxGeometry>
        </mxCell>
        <mxCell id="5kiuY5boxaqDOLgrD8A7-18" value="del_MOB_CAMP_HH_STATS" style="verticalAlign=bottom;endArrow=block;entryX=-0.03;entryY=0.012;shadow=0;strokeWidth=1;entryDx=0;entryDy=0;entryPerimeter=0;" parent="1" target="5kiuY5boxaqDOLgrD8A7-21" edge="1">
          <mxGeometry relative="1" as="geometry">
            <mxPoint x="750" y="500.0000000000001" as="sourcePoint" />
            <mxPoint x="1324.6699999999996" y="500.7800000000001" as="targetPoint" />
          </mxGeometry>
        </mxCell>
        <mxCell id="5kiuY5boxaqDOLgrD8A7-19" value="BILLING.MOB_CAMP_HH_STATS&lt;br&gt;( 캠페인 시간 통계 )" style="text;html=1;strokeColor=none;fillColor=none;align=center;verticalAlign=middle;whiteSpace=wrap;rounded=0;" parent="1" vertex="1">
          <mxGeometry x="1377.5" y="500" width="150" height="30" as="geometry" />
        </mxCell>
        <mxCell id="5kiuY5boxaqDOLgrD8A7-20" value="return" style="verticalAlign=bottom;endArrow=open;dashed=1;endSize=8;shadow=0;strokeWidth=1;entryX=0.995;entryY=0.129;entryDx=0;entryDy=0;entryPerimeter=0;exitX=-0.012;exitY=0.987;exitDx=0;exitDy=0;exitPerimeter=0;" parent="1" source="5kiuY5boxaqDOLgrD8A7-21" target="5kiuY5boxaqDOLgrD8A7-16" edge="1">
          <mxGeometry relative="1" as="geometry">
            <mxPoint x="750" y="519.6600000000001" as="targetPoint" />
            <mxPoint x="1320" y="520" as="sourcePoint" />
          </mxGeometry>
        </mxCell>
        <mxCell id="5kiuY5boxaqDOLgrD8A7-30" value="insert_MOB_CAMP_HH_STATS" style="verticalAlign=bottom;endArrow=block;entryX=-0.046;entryY=0.024;shadow=0;strokeWidth=1;entryDx=0;entryDy=0;entryPerimeter=0;" parent="1" target="5kiuY5boxaqDOLgrD8A7-33" edge="1">
          <mxGeometry relative="1" as="geometry">
            <mxPoint x="750" y="550.0000000000001" as="sourcePoint" />
            <mxPoint x="1324.6699999999996" y="550.7800000000001" as="targetPoint" />
          </mxGeometry>
        </mxCell>
        <mxCell id="5kiuY5boxaqDOLgrD8A7-31" value="OpenRTB.ORTB_CAMP_MEDIA_HH_STATS&lt;br&gt;( 캠페인 매체 시간 통계 )&lt;br&gt;to&lt;br&gt;BILLING.MOB_CAMP_HH_STATS&lt;br&gt;( 캠페인 시간 통계 )" style="text;html=1;strokeColor=none;fillColor=none;align=center;verticalAlign=middle;whiteSpace=wrap;rounded=0;" parent="1" vertex="1">
          <mxGeometry x="1377.5" y="530" width="150" height="110" as="geometry" />
        </mxCell>
        <mxCell id="5kiuY5boxaqDOLgrD8A7-32" value="return" style="verticalAlign=bottom;endArrow=open;dashed=1;endSize=8;exitX=0.011;exitY=0.987;shadow=0;strokeWidth=1;exitDx=0;exitDy=0;exitPerimeter=0;entryX=1;entryY=0.297;entryDx=0;entryDy=0;entryPerimeter=0;" parent="1" source="5kiuY5boxaqDOLgrD8A7-33" edge="1">
          <mxGeometry relative="1" as="geometry">
            <mxPoint x="750" y="568.0809999999999" as="targetPoint" />
            <mxPoint x="1325.17" y="569.6600000000001" as="sourcePoint" />
          </mxGeometry>
        </mxCell>
        <mxCell id="5kiuY5boxaqDOLgrD8A7-47" value="" style="points=[];perimeter=orthogonalPerimeter;rounded=0;shadow=0;strokeWidth=1;" parent="1" vertex="1">
          <mxGeometry x="1318.5" y="639" width="10" height="20" as="geometry" />
        </mxCell>
        <mxCell id="5kiuY5boxaqDOLgrD8A7-48" value="del_MOB_ADVER_HH_STATS" style="verticalAlign=bottom;endArrow=block;entryX=-0.03;entryY=0.012;shadow=0;strokeWidth=1;entryDx=0;entryDy=0;entryPerimeter=0;" parent="1" target="5kiuY5boxaqDOLgrD8A7-47" edge="1">
          <mxGeometry relative="1" as="geometry">
            <mxPoint x="750" y="640" as="sourcePoint" />
            <mxPoint x="1334.6699999999996" y="639.7800000000001" as="targetPoint" />
          </mxGeometry>
        </mxCell>
        <mxCell id="5kiuY5boxaqDOLgrD8A7-49" value="BILLING.MOB_ADVER_HH_STATS&lt;br&gt;( 광고주별 시간 통계 )" style="text;html=1;strokeColor=none;fillColor=none;align=center;verticalAlign=middle;whiteSpace=wrap;rounded=0;" parent="1" vertex="1">
          <mxGeometry x="1387.5" y="639" width="150" height="30" as="geometry" />
        </mxCell>
        <mxCell id="5kiuY5boxaqDOLgrD8A7-50" value="return" style="verticalAlign=bottom;endArrow=open;dashed=1;endSize=8;shadow=0;strokeWidth=1;entryX=1;entryY=0.304;entryDx=0;entryDy=0;entryPerimeter=0;exitX=-0.012;exitY=0.987;exitDx=0;exitDy=0;exitPerimeter=0;" parent="1" source="5kiuY5boxaqDOLgrD8A7-47" target="5kiuY5boxaqDOLgrD8A7-16" edge="1">
          <mxGeometry relative="1" as="geometry">
            <mxPoint x="760" y="657.0809999999999" as="targetPoint" />
            <mxPoint x="1330" y="659" as="sourcePoint" />
          </mxGeometry>
        </mxCell>
        <mxCell id="5kiuY5boxaqDOLgrD8A7-53" value="" style="points=[];perimeter=orthogonalPerimeter;rounded=0;shadow=0;strokeWidth=1;" parent="1" vertex="1">
          <mxGeometry x="1317.5" y="692" width="10" height="20" as="geometry" />
        </mxCell>
        <mxCell id="5kiuY5boxaqDOLgrD8A7-54" value="insert_MOB_ADVER_HH_STATS" style="verticalAlign=bottom;endArrow=block;entryX=-0.046;entryY=0.024;shadow=0;strokeWidth=1;entryDx=0;entryDy=0;entryPerimeter=0;" parent="1" target="5kiuY5boxaqDOLgrD8A7-53" edge="1">
          <mxGeometry relative="1" as="geometry">
            <mxPoint x="750" y="692.0000000000001" as="sourcePoint" />
            <mxPoint x="1324.6699999999996" y="692.7800000000001" as="targetPoint" />
          </mxGeometry>
        </mxCell>
        <mxCell id="5kiuY5boxaqDOLgrD8A7-55" value="OpenRTB.ORTB_CAMP_MEDIA_HH_STATS&lt;br&gt;( 캠페인 매체 시간 통계 )&lt;br&gt;to&lt;br&gt;BILLING.MOB_ADVER_HH_STATS&lt;br&gt;( 광고주별 시간 통계 )" style="text;html=1;strokeColor=none;fillColor=none;align=center;verticalAlign=middle;whiteSpace=wrap;rounded=0;" parent="1" vertex="1">
          <mxGeometry x="1377.5" y="672" width="150" height="110" as="geometry" />
        </mxCell>
        <mxCell id="5kiuY5boxaqDOLgrD8A7-56" value="return" style="verticalAlign=bottom;endArrow=open;dashed=1;endSize=8;exitX=0.011;exitY=0.987;shadow=0;strokeWidth=1;exitDx=0;exitDy=0;exitPerimeter=0;entryX=1;entryY=0.297;entryDx=0;entryDy=0;entryPerimeter=0;" parent="1" source="5kiuY5boxaqDOLgrD8A7-53" edge="1">
          <mxGeometry relative="1" as="geometry">
            <mxPoint x="750" y="710.0809999999999" as="targetPoint" />
            <mxPoint x="1325.17" y="711.6600000000001" as="sourcePoint" />
          </mxGeometry>
        </mxCell>
        <mxCell id="5kiuY5boxaqDOLgrD8A7-57" value="" style="points=[];perimeter=orthogonalPerimeter;rounded=0;shadow=0;strokeWidth=1;" parent="1" vertex="1">
          <mxGeometry x="1318.5" y="783" width="10" height="20" as="geometry" />
        </mxCell>
        <mxCell id="5kiuY5boxaqDOLgrD8A7-58" value="del_MOB_COM_HH_STATS_INFO" style="verticalAlign=bottom;endArrow=block;entryX=-0.03;entryY=0.012;shadow=0;strokeWidth=1;entryDx=0;entryDy=0;entryPerimeter=0;exitX=1.02;exitY=0.487;exitDx=0;exitDy=0;exitPerimeter=0;" parent="1" target="5kiuY5boxaqDOLgrD8A7-57" edge="1">
          <mxGeometry relative="1" as="geometry">
            <mxPoint x="750.2" y="782.1309999999999" as="sourcePoint" />
            <mxPoint x="1334.6699999999996" y="783.7800000000001" as="targetPoint" />
          </mxGeometry>
        </mxCell>
        <mxCell id="5kiuY5boxaqDOLgrD8A7-59" value="BILLING.MOB_COM_HH_STATS_INFO&lt;br&gt;( 공통 시간 통계 )" style="text;html=1;strokeColor=none;fillColor=none;align=center;verticalAlign=middle;whiteSpace=wrap;rounded=0;" parent="1" vertex="1">
          <mxGeometry x="1387.5" y="783" width="150" height="30" as="geometry" />
        </mxCell>
        <mxCell id="5kiuY5boxaqDOLgrD8A7-60" value="return" style="verticalAlign=bottom;endArrow=open;dashed=1;endSize=8;shadow=0;strokeWidth=1;entryX=1.133;entryY=0.54;entryDx=0;entryDy=0;entryPerimeter=0;exitX=-0.012;exitY=0.987;exitDx=0;exitDy=0;exitPerimeter=0;" parent="1" source="5kiuY5boxaqDOLgrD8A7-57" edge="1">
          <mxGeometry relative="1" as="geometry">
            <mxPoint x="751.3299999999999" y="804.02" as="targetPoint" />
            <mxPoint x="1330" y="803" as="sourcePoint" />
          </mxGeometry>
        </mxCell>
        <mxCell id="5kiuY5boxaqDOLgrD8A7-61" value="" style="points=[];perimeter=orthogonalPerimeter;rounded=0;shadow=0;strokeWidth=1;" parent="1" vertex="1">
          <mxGeometry x="1317.5" y="836" width="10" height="20" as="geometry" />
        </mxCell>
        <mxCell id="5kiuY5boxaqDOLgrD8A7-62" value="insert_MOB_COM_HH_STATS_INFO" style="verticalAlign=bottom;endArrow=block;entryX=-0.046;entryY=0.024;shadow=0;strokeWidth=1;entryDx=0;entryDy=0;entryPerimeter=0;" parent="1" target="5kiuY5boxaqDOLgrD8A7-61" edge="1">
          <mxGeometry relative="1" as="geometry">
            <mxPoint x="750" y="836" as="sourcePoint" />
            <mxPoint x="1324.6699999999996" y="836.7800000000001" as="targetPoint" />
          </mxGeometry>
        </mxCell>
        <mxCell id="5kiuY5boxaqDOLgrD8A7-63" value="OpenRTB.ORTB_CAMP_MEDIA_HH_STATS&lt;br&gt;( 캠페인 매체 시간 통계 )&lt;br&gt;to&lt;br&gt;BILLING.MOB_COM_HH_STATS_INFO&lt;br&gt;( 공통 시간 통계 )" style="text;html=1;strokeColor=none;fillColor=none;align=center;verticalAlign=middle;whiteSpace=wrap;rounded=0;" parent="1" vertex="1">
          <mxGeometry x="1377.5" y="816" width="150" height="110" as="geometry" />
        </mxCell>
        <mxCell id="5kiuY5boxaqDOLgrD8A7-64" value="return" style="verticalAlign=bottom;endArrow=open;dashed=1;endSize=8;exitX=0.011;exitY=0.987;shadow=0;strokeWidth=1;exitDx=0;exitDy=0;exitPerimeter=0;entryX=1;entryY=0.297;entryDx=0;entryDy=0;entryPerimeter=0;" parent="1" source="5kiuY5boxaqDOLgrD8A7-61" edge="1">
          <mxGeometry relative="1" as="geometry">
            <mxPoint x="750" y="854.0809999999999" as="targetPoint" />
            <mxPoint x="1325.17" y="855.6600000000001" as="sourcePoint" />
          </mxGeometry>
        </mxCell>
        <mxCell id="5kiuY5boxaqDOLgrD8A7-65" value="" style="points=[];perimeter=orthogonalPerimeter;rounded=0;shadow=0;strokeWidth=1;" parent="1" vertex="1">
          <mxGeometry x="1318.5" y="924" width="10" height="20" as="geometry" />
        </mxCell>
        <mxCell id="5kiuY5boxaqDOLgrD8A7-66" value="del_MOB_MEDIA_SCRIPT_HH_STATS" style="verticalAlign=bottom;endArrow=block;entryX=-0.03;entryY=0.012;shadow=0;strokeWidth=1;entryDx=0;entryDy=0;entryPerimeter=0;exitX=1.02;exitY=0.487;exitDx=0;exitDy=0;exitPerimeter=0;" parent="1" target="5kiuY5boxaqDOLgrD8A7-65" edge="1">
          <mxGeometry relative="1" as="geometry">
            <mxPoint x="750.2" y="923.1309999999999" as="sourcePoint" />
            <mxPoint x="1334.6699999999996" y="924.7800000000001" as="targetPoint" />
          </mxGeometry>
        </mxCell>
        <mxCell id="5kiuY5boxaqDOLgrD8A7-67" value="BILLING.MOB_MEDIA_SCRIPT_HH_STATS&lt;br&gt;( 매체스크립트 시간 통계 )" style="text;html=1;strokeColor=none;fillColor=none;align=center;verticalAlign=middle;whiteSpace=wrap;rounded=0;" parent="1" vertex="1">
          <mxGeometry x="1387.5" y="924" width="150" height="30" as="geometry" />
        </mxCell>
        <mxCell id="5kiuY5boxaqDOLgrD8A7-68" value="return" style="verticalAlign=bottom;endArrow=open;dashed=1;endSize=8;shadow=0;strokeWidth=1;entryX=1.133;entryY=0.54;entryDx=0;entryDy=0;entryPerimeter=0;exitX=-0.012;exitY=0.987;exitDx=0;exitDy=0;exitPerimeter=0;" parent="1" source="5kiuY5boxaqDOLgrD8A7-65" edge="1">
          <mxGeometry relative="1" as="geometry">
            <mxPoint x="751.3299999999999" y="945.02" as="targetPoint" />
            <mxPoint x="1330" y="944" as="sourcePoint" />
          </mxGeometry>
        </mxCell>
        <mxCell id="5kiuY5boxaqDOLgrD8A7-69" value="" style="points=[];perimeter=orthogonalPerimeter;rounded=0;shadow=0;strokeWidth=1;" parent="1" vertex="1">
          <mxGeometry x="1317.5" y="970" width="10" height="20" as="geometry" />
        </mxCell>
        <mxCell id="5kiuY5boxaqDOLgrD8A7-70" value="insert_MOB_MEDIA_SCRIPT_HH_STATS" style="verticalAlign=bottom;endArrow=block;entryX=-0.046;entryY=0.024;shadow=0;strokeWidth=1;entryDx=0;entryDy=0;entryPerimeter=0;" parent="1" target="5kiuY5boxaqDOLgrD8A7-69" edge="1">
          <mxGeometry relative="1" as="geometry">
            <mxPoint x="750" y="970" as="sourcePoint" />
            <mxPoint x="1324.6699999999996" y="970.7800000000001" as="targetPoint" />
          </mxGeometry>
        </mxCell>
        <mxCell id="5kiuY5boxaqDOLgrD8A7-71" value="OpenRTB.ORTB_CAMP_MEDIA_HH_STATS&lt;br&gt;( 캠페인 매체 시간 통계 )&lt;br&gt;to&lt;br&gt;BILLING.MOB_MEDIA_SCRIPT_HH_STATS&lt;br&gt;( 매체스크립트 시간 통계 )" style="text;html=1;strokeColor=none;fillColor=none;align=center;verticalAlign=middle;whiteSpace=wrap;rounded=0;" parent="1" vertex="1">
          <mxGeometry x="1377.5" y="950" width="150" height="110" as="geometry" />
        </mxCell>
        <mxCell id="5kiuY5boxaqDOLgrD8A7-72" value="return" style="verticalAlign=bottom;endArrow=open;dashed=1;endSize=8;exitX=0.011;exitY=0.987;shadow=0;strokeWidth=1;exitDx=0;exitDy=0;exitPerimeter=0;entryX=1;entryY=0.297;entryDx=0;entryDy=0;entryPerimeter=0;" parent="1" source="5kiuY5boxaqDOLgrD8A7-69" edge="1">
          <mxGeometry relative="1" as="geometry">
            <mxPoint x="750" y="988.0809999999999" as="targetPoint" />
            <mxPoint x="1325.17" y="989.6600000000001" as="sourcePoint" />
          </mxGeometry>
        </mxCell>
        <mxCell id="5kiuY5boxaqDOLgrD8A7-73" value="" style="points=[];perimeter=orthogonalPerimeter;rounded=0;shadow=0;strokeWidth=1;" parent="1" vertex="1">
          <mxGeometry x="1317.5" y="1061" width="10" height="20" as="geometry" />
        </mxCell>
        <mxCell id="5kiuY5boxaqDOLgrD8A7-74" value="del_MOB_MEDIA_HH_STATS" style="verticalAlign=bottom;endArrow=block;entryX=-0.03;entryY=0.012;shadow=0;strokeWidth=1;entryDx=0;entryDy=0;entryPerimeter=0;exitX=1.02;exitY=0.487;exitDx=0;exitDy=0;exitPerimeter=0;" parent="1" target="5kiuY5boxaqDOLgrD8A7-73" edge="1">
          <mxGeometry relative="1" as="geometry">
            <mxPoint x="749.2" y="1060.1309999999999" as="sourcePoint" />
            <mxPoint x="1333.6699999999996" y="1061.7800000000002" as="targetPoint" />
          </mxGeometry>
        </mxCell>
        <mxCell id="5kiuY5boxaqDOLgrD8A7-75" value="BILLING.MOB_MEDIA_HH_STATS&lt;br&gt;( 매체사 시간 통계 )" style="text;html=1;strokeColor=none;fillColor=none;align=center;verticalAlign=middle;whiteSpace=wrap;rounded=0;" parent="1" vertex="1">
          <mxGeometry x="1386.5" y="1061" width="150" height="30" as="geometry" />
        </mxCell>
        <mxCell id="5kiuY5boxaqDOLgrD8A7-76" value="return" style="verticalAlign=bottom;endArrow=open;dashed=1;endSize=8;shadow=0;strokeWidth=1;entryX=1.133;entryY=0.54;entryDx=0;entryDy=0;entryPerimeter=0;exitX=-0.012;exitY=0.987;exitDx=0;exitDy=0;exitPerimeter=0;" parent="1" source="5kiuY5boxaqDOLgrD8A7-73" edge="1">
          <mxGeometry relative="1" as="geometry">
            <mxPoint x="750.3299999999999" y="1082.02" as="targetPoint" />
            <mxPoint x="1329" y="1081" as="sourcePoint" />
          </mxGeometry>
        </mxCell>
        <mxCell id="5kiuY5boxaqDOLgrD8A7-77" value="" style="points=[];perimeter=orthogonalPerimeter;rounded=0;shadow=0;strokeWidth=1;" parent="1" vertex="1">
          <mxGeometry x="1317.5" y="1112" width="10" height="20" as="geometry" />
        </mxCell>
        <mxCell id="5kiuY5boxaqDOLgrD8A7-78" value="insert_MOB_MEDIA_SCRIPT_HH_STATS" style="verticalAlign=bottom;endArrow=block;entryX=-0.046;entryY=0.024;shadow=0;strokeWidth=1;entryDx=0;entryDy=0;entryPerimeter=0;" parent="1" target="5kiuY5boxaqDOLgrD8A7-77" edge="1">
          <mxGeometry relative="1" as="geometry">
            <mxPoint x="750" y="1112" as="sourcePoint" />
            <mxPoint x="1324.6699999999996" y="1112.7800000000002" as="targetPoint" />
          </mxGeometry>
        </mxCell>
        <mxCell id="5kiuY5boxaqDOLgrD8A7-79" value="OpenRTB.ORTB_CAMP_MEDIA_HH_STATS&lt;br&gt;( 캠페인 매체 시간 통계 )&lt;br&gt;to&lt;br&gt;BILLING.MOB_MEDIA_HH_STATS&lt;br&gt;( 매체사 시간 통계 )" style="text;html=1;strokeColor=none;fillColor=none;align=center;verticalAlign=middle;whiteSpace=wrap;rounded=0;" parent="1" vertex="1">
          <mxGeometry x="1377.5" y="1092" width="150" height="110" as="geometry" />
        </mxCell>
        <mxCell id="5kiuY5boxaqDOLgrD8A7-80" value="return" style="verticalAlign=bottom;endArrow=open;dashed=1;endSize=8;exitX=0.011;exitY=0.987;shadow=0;strokeWidth=1;exitDx=0;exitDy=0;exitPerimeter=0;entryX=1;entryY=0.297;entryDx=0;entryDy=0;entryPerimeter=0;" parent="1" source="5kiuY5boxaqDOLgrD8A7-77" edge="1">
          <mxGeometry relative="1" as="geometry">
            <mxPoint x="750" y="1130.081" as="targetPoint" />
            <mxPoint x="1325.17" y="1131.66" as="sourcePoint" />
          </mxGeometry>
        </mxCell>
        <mxCell id="5kiuY5boxaqDOLgrD8A7-89" value="일자별 보정도 앞선 시간대 보정과 동일한 과정 진행하므로 이하 생략 및 테이블만 정리&lt;br&gt;&lt;br&gt;&lt;br&gt;총 노출수 검증 : BILLING.MOB_CAMP_MEDIA_STATS, OpenRTB.ORTB_CAMP_MEDIA_STATS&lt;br&gt;캠페인 매체 통계 : OpenRTB.ORTB_CAMP_MEDIA_STATS -&amp;gt; BILLING.MOB_CAMP_MEDIA_STATS&lt;br&gt;캠페인통계 : OpenRTB.ORTB_CAMP_MEDIA_STATS -&amp;gt; BILLING.MOB_CAMP_STATS&lt;br&gt;광고주 매체 통계 : OpenRTB.ORTB_CAMP_MEDIA_STATS -&amp;gt; BILLING.MOB_ADVER_MEDIA_STATS&lt;br&gt;매체별 통계 : OpenRTB.ORTB_CAMP_MEDIA_STATS -&amp;gt; BILLING.MOB_ADVER_STATS&lt;br&gt;매체 스크립트 통계 : OpenRTB.ORTB_CAMP_MEDIA_STATS -&amp;gt; BILLING.MOB_MEDIA_SCRIPT_STATS&lt;br&gt;매체별 통계 : OpenRTB.ORTB_CAMP_MEDIA_STATS -&amp;gt; BILLING.MOB_MEDIA_STATS&lt;br&gt;공통 통계 : OpenRTB.ORTB_CAMP_MEDIA_STATS -&amp;gt; BILLING.MOB_COM_STATS_INFO&lt;br&gt;매체스크립트 과금 통계 : OpenRTB.ORTB_CAMP_MEDIA_STATS -&amp;gt; BILLING.MOB_MEDIA_SCRIPT_CHRG_STATS&lt;br&gt;매체사 과금 통계 : OpenRTB.ORTB_CAMP_MEDIA_STATS -&amp;gt; BILLING.MOB_MEDIA_CHRG_STATS" style="text;html=1;strokeColor=none;fillColor=none;align=center;verticalAlign=middle;whiteSpace=wrap;rounded=0;" parent="1" vertex="1">
          <mxGeometry x="800" y="1270" width="770" height="180" as="geometry" />
        </mxCell>
      </root>
    </mxGraphModel>
  </diagram>
</mxfile>
